<svg id="Layer_1" data-name="Layer 1" xmlns="http://www.w3.org/2000/svg" xmlns:xlink="http://www.w3.org/1999/xlink" width="1080" height="1080" viewBox="0 0 1080 1080"><defs><style>.cls-1{fill:url(#linear-gradient);}.cls-2{fill:url(#linear-gradient-2);}.cls-3{fill:#fff;}</style><linearGradient id="linear-gradient" x1="1544.7905" y1="1138.0018" x2="-784.305" y2="-706.0476" gradientUnits="userSpaceOnUse"><stop offset="0" stop-color="#f28d1d"/><stop offset="0.2403" stop-color="#d65b30"/><stop offset="0.4681" stop-color="#c13440"/><stop offset="0.6759" stop-color="#b1174b"/><stop offset="0.8567" stop-color="#a70652"/><stop offset="0.9904" stop-color="#a40054"/></linearGradient><linearGradient id="linear-gradient-2" x1="-303.9496" y1="165.676" x2="1439.5947" y2="939.128" gradientUnits="userSpaceOnUse"><stop offset="0" stop-color="#17dcb8"/><stop offset="0.013" stop-color="#17d9b8"/><stop offset="0.1758" stop-color="#19b5b8"/><stop offset="0.34" stop-color="#1a99b8"/><stop offset="0.5043" stop-color="#1a85b8"/><stop offset="0.6686" stop-color="#1b79b8"/><stop offset="0.8333" stop-color="#1b75b8"/></linearGradient></defs><path class="cls-1" d="M1032.0258,923.5093H546.963a27.5456,27.5456,0,0,1-27.5456-27.5456V820.3419a27.5456,27.5456,0,0,1,27.5456-27.5456H882.9454a27.5456,27.5456,0,0,0,27.5456-27.5456V184.0363a27.5456,27.5456,0,0,1,27.5456-27.5456h93.9892a27.5456,27.5456,0,0,1,27.5456,27.5456V895.9637A27.5456,27.5456,0,0,1,1032.0258,923.5093Z"/><path class="cls-2" d="M20.4286,259.6581V184.0363a27.5456,27.5456,0,0,1,27.5456-27.5456H786.5247A27.5456,27.5456,0,0,1,814.07,184.0363v75.6218a27.5456,27.5456,0,0,1-27.5456,27.5456H441.2105a27.5456,27.5456,0,0,0-27.5456,27.5456V895.9637a27.5456,27.5456,0,0,1-27.5456,27.5456H293.2062a27.5456,27.5456,0,0,1-27.5456-27.5456V314.7493a27.5456,27.5456,0,0,0-27.5456-27.5456H47.9742A27.5456,27.5456,0,0,1,20.4286,259.6581Z"/><path class="cls-3" d="M405.6625,759.9546,831.0172,229.8854c15.1027-18.8207,49.4838-16.3132,76.7924,5.6h0C935.1182,257.4,945.013,290.4216,929.91,309.2423L504.5556,839.3115c-15.1027,18.8207-49.4838,16.3133-76.7923-5.6005h0C400.4546,811.7971,390.56,778.7753,405.6625,759.9546Z"/></svg>